<svg width="28" height="29" viewBox="0 0 28 29" fill="none" xmlns="http://www.w3.org/2000/svg">
<rect y="0.5" width="28" height="28" rx="14" fill="#4285F4"/>
<path d="M10.088 20.5V18.82L12.888 15.936C13.4387 15.3667 13.854 14.9187 14.134 14.592C14.4233 14.256 14.6193 13.976 14.722 13.752C14.834 13.528 14.89 13.3087 14.89 13.094C14.89 12.7113 14.764 12.4127 14.512 12.198C14.2693 11.974 13.9613 11.862 13.588 11.862C13.2053 11.862 12.8647 11.974 12.566 12.198C12.2673 12.4127 12.048 12.744 11.908 13.192L10.018 12.576C10.13 12.0347 10.3633 11.5633 10.718 11.162C11.0727 10.7607 11.502 10.4527 12.006 10.238C12.51 10.014 13.0373 9.902 13.588 9.902C14.2787 9.902 14.8853 10.0233 15.408 10.266C15.9307 10.5087 16.3367 10.8493 16.626 11.288C16.9153 11.7267 17.06 12.24 17.06 12.828C17.06 13.2013 16.9947 13.57 16.864 13.934C16.7333 14.2887 16.5327 14.6527 16.262 15.026C16.0007 15.39 15.66 15.7867 15.24 16.216L12.846 18.68H17.158V20.5H10.088Z" fill="white"/>
</svg>
