<svg width="22" height="22" viewBox="0 0 22 22" fill="none" xmlns="http://www.w3.org/2000/svg">
    <path
        d="M20.1391 16.8032C20.1391 17.1332 20.0658 17.4723 19.9099 17.8023C19.7541 18.1323 19.5524 18.444 19.2866 18.7373C18.8374 19.2323 18.3424 19.5898 17.7833 19.819C17.2333 20.0482 16.6374 20.1673 15.9958 20.1673C15.0608 20.1673 14.0616 19.9473 13.0074 19.4982C11.9533 19.049 10.8991 18.444 9.85408 17.6832C8.79992 16.9132 7.80075 16.0607 6.84742 15.1165C5.90325 14.1632 5.05075 13.164 4.28992 12.119C3.53825 11.074 2.93325 10.029 2.49325 8.99315C2.05325 7.94815 1.83325 6.94898 1.83325 5.99565C1.83325 5.37232 1.94325 4.77648 2.16325 4.22648C2.38325 3.66732 2.73159 3.15398 3.21742 2.69565C3.80409 2.11815 4.44575 1.83398 5.12409 1.83398C5.38075 1.83398 5.63742 1.88898 5.86659 1.99898C6.10492 2.10898 6.31575 2.27398 6.48075 2.51232L8.60742 5.50982C8.77242 5.73898 8.89158 5.94982 8.97408 6.15148C9.05658 6.34398 9.10242 6.53648 9.10242 6.71065C9.10242 6.93065 9.03825 7.15065 8.90992 7.36148C8.79075 7.57232 8.61658 7.79232 8.39658 8.01232L7.69992 8.73648C7.59908 8.83732 7.55325 8.95648 7.55325 9.10315C7.55325 9.17648 7.56242 9.24065 7.58075 9.31398C7.60825 9.38732 7.63575 9.44232 7.65409 9.49732C7.81909 9.79982 8.10325 10.194 8.50658 10.6707C8.91908 11.1473 9.35908 11.6332 9.83575 12.119C10.3308 12.6048 10.8074 13.054 11.2933 13.4665C11.7699 13.8698 12.1641 14.1448 12.4758 14.3098C12.5216 14.3282 12.5766 14.3557 12.6408 14.3832C12.7141 14.4107 12.7874 14.4198 12.8699 14.4198C13.0258 14.4198 13.1449 14.3648 13.2458 14.264L13.9424 13.5765C14.1716 13.3473 14.3916 13.1732 14.6024 13.0632C14.8133 12.9348 15.0241 12.8707 15.2533 12.8707C15.4274 12.8707 15.6108 12.9073 15.8124 12.9898C16.0141 13.0723 16.2249 13.1915 16.4541 13.3473L19.4883 15.5015C19.7266 15.6665 19.8916 15.859 19.9924 16.0881C20.0841 16.3173 20.1391 16.5465 20.1391 16.8032Z"
        stroke="white" stroke-width="1.5" stroke-miterlimit="10" />
</svg>