<svg width="28" height="29" viewBox="0 0 28 29" fill="none" xmlns="http://www.w3.org/2000/svg">
<rect y="0.5" width="28" height="28" rx="14" fill="#4285F4"/>
<path d="M13.588 20.668C13.0093 20.668 12.4587 20.5607 11.936 20.346C11.4133 20.122 10.97 19.8093 10.606 19.408C10.242 19.0067 9.99933 18.5353 9.878 17.994L11.796 17.35C11.9547 17.798 12.188 18.1387 12.496 18.372C12.804 18.596 13.168 18.708 13.588 18.708C13.9333 18.708 14.2273 18.6427 14.47 18.512C14.722 18.3813 14.918 18.1993 15.058 17.966C15.198 17.7233 15.268 17.4433 15.268 17.126C15.268 16.8087 15.198 16.538 15.058 16.314C14.9273 16.0807 14.736 15.9033 14.484 15.782C14.2413 15.6513 13.9427 15.586 13.588 15.586C13.3827 15.586 13.1773 15.6093 12.972 15.656C12.7667 15.7027 12.58 15.768 12.412 15.852L11.908 14.802L14.582 11.89H10.508V10.07H17.018V11.75L14.274 14.872L14.344 13.99C14.9693 13.99 15.5107 14.1207 15.968 14.382C16.4347 14.634 16.794 14.9887 17.046 15.446C17.3073 15.9033 17.438 16.4353 17.438 17.042C17.438 17.7327 17.27 18.3533 16.934 18.904C16.598 19.4547 16.1407 19.8887 15.562 20.206C14.9833 20.514 14.3253 20.668 13.588 20.668Z" fill="white"/>
</svg>
